<?xml version="1.0" encoding="UTF-8"?><svg xmlns="http://www.w3.org/2000/svg" width="314" height="143" stroke="none" stroke-linecap="round" stroke-linejoin="round" fill="#eb541c" fill-rule="nonzero"><path d="M4.61 119.584h16.012c1.1364 0 1.526.0896 1.975.3589.5391.3594.8687.9578.8687 1.6761s-.3296 1.3166-.8687 1.6759c-.449.2694-.8386.359-1.975.359H4.61v15.9223c0 1.1969-.0599 1.5849-.4177 2.1542s-1.0485.9578-1.8854.9578-1.5277-.3896-1.8855-.9578-.4192-.9573-.4192-2.1542v-36.9614c0-.7183 0-1.5261.6276-2.1547s1.4375-.6281 2.1546-.6281h21.0692c1.1382 0 1.5271.0896 1.9751.3588.5391.3593.8687.9579.8687 1.676s-.3296 1.3167-.8687 1.6761c-.448.2693-.8369.3589-1.9751.3589H4.61v15.6822m44.901 19.9922c0 1.1969-.0598 1.5849-.4177 2.1542s-1.0485.9578-1.8854.9578-1.5276-.3896-1.8854-.9578-.4194-.9573-.4194-2.1542v-36.8713c0-1.1969.0601-1.5865.4194-2.1548s1.0469-.9577 1.8854-.9577 1.526.3891 1.8854.9577.4177.9579.4177 2.1548v36.8713m51.6615.0891c0 1.1078-.2093 1.7958-.7173 2.3042-.4494.4489-1.0483.7187-1.7358.7187-1.1078 0-1.8256-.6588-2.6042-1.8255l-21.8776-32.3219v31.0354c0 1.1969-.0599 1.5849-.4177 2.1542s-1.0485.9578-1.8854.9578-1.5276-.3896-1.8855-.9578-.4192-.9573-.4192-2.1542v-36.9614c0-1.1068.2094-1.7953.7173-2.3041.4192-.4491 1.0483-.7183 1.7369-.7183 1.1067 0 1.7958.6583 2.6031 1.8255l21.8775 32.3219v-31.0349c0-1.1969.0601-1.5865.4177-2.1548s1.0485-.9577 1.8871-.9577 1.526.3891 1.8854.9577.4177.9579.4177 2.1548v36.9604m25.9896-10.8042h16.0699l-8.02-21.9364zm5.4468-26.875c.3292-.8677.5687-1.2568.8964-1.6458.4201-.4489.9588-.7479 1.7067-.7479s1.288.299 1.7067.7479c.328.389.568.7484.8973 1.6458l13.8267 36.9313c.4187 1.1375.6893 2.1839-.2094 3.0828-.4199.4182-1.0173.688-1.6759.688-.4493 0-.8387-.1494-1.1681-.3896-.4786-.389-.688-.7172-1.1067-1.8255l-2.8132-7.6615h-18.9448l-2.8125 7.6615c-.4195 1.1083-.6287 1.4365-1.1079 1.8255-.3282.2402-.7178.3896-1.1667.3896-.6588 0-1.2568-.2698-1.676-.688-.8984-.8989-.599-1.9453-.1798-3.0828l13.8272-36.9313m67.5858 37.6792c0 1.1078-.2093 1.7958-.7173 2.3042-.4493.4489-1.0481.7187-1.7361.7187-1.1079 0-1.8253-.6588-2.604-1.8255L173.26 108.5408v31.0354c0 1.1969-.0599 1.5849-.4186 2.1542s-1.0481.9578-1.8853.9578-1.5267-.3896-1.8854-.9578-.4186-.9573-.4186-2.1542v-36.9614c0-1.1068.2092-1.7953.7173-2.3041.4187-.4491 1.048-.7183 1.7359-.7183 1.1081 0 1.7961.6583 2.6041 1.8255l21.8773 32.3219v-31.0349c0-1.1969.06-1.5865.4187-2.1548s1.0479-.9577 1.8853-.9577 1.5267.3891 1.8866.9577.4174.9579.4174 2.1548v36.9604m22.8467-36.0031c2.604-2.6334 6.2254-4.1896 10.5947-4.1896 5.5066 0 9.008 2.1548 11.4319 5.1177 1.7961 2.1547 2.7228 4.8183 2.7228 6.1948 0 .7484-.1787 1.2574-.5974 1.676s-.9586.5986-1.5266.5986c-.5988 0-1.0774-.1792-1.4067-.4792-.4787-.4188-.808-1.1068-1.0773-1.9151-1.5254-4.5188-4.8494-7.1224-9.5761-7.1224-2.8746 0-5.3573 1.0473-7.3026 3.0525-2.724 2.7828-2.9934 5.9256-2.9934 14.5443s.2694 11.762 2.9934 14.5454c1.9453 2.0057 4.428 3.052 7.3026 3.052 4.7267 0 8.0507-2.6036 9.5761-7.1224.2693-.8083.5986-1.4964 1.0773-1.9151.3293-.2995.8079-.4791 1.4067-.4791.568 0 1.108.1796 1.5266.5984s.5974.9276.5974 1.676c0 1.3766-.9267 4.0396-2.7228 6.1959-2.4239 2.9625-5.9253 5.1171-11.4319 5.1171-4.3693 0-7.9907-1.5572-10.5947-4.1906-4.0414-4.0693-4.3386-7.6911-4.3386-17.4776s.2972-13.4072 4.3386-17.4776m68.3053-3.8302c1.1387 0 1.5281.0896 1.9761.3588.5385.3593.8679.9579.8679 1.676s-.3294 1.3167-.8679 1.6761c-.448.2693-.8374.3589-1.9761.3589H272.104v15.0239h15.9813c1.1374 0 1.5254.0896 1.9748.3588.54.3595.8692.9579.8692 1.6762s-.3292 1.3166-.8692 1.676c-.4494.2692-.8374.3588-1.9748.3588H272.104v15.3833h19.2427c1.1387 0 1.5281.0891 1.9761.3584.5385.3599.8679.9573.8679 1.676s-.3294 1.3172-.8679 1.676c-.448.2693-.8374.3589-1.9761.3589h-21.0693c-.7173 0-1.5253 0-2.1547-.6281s-.6266-1.436-.6266-2.1547v-37.0505c0-.7183 0-1.5261.6266-2.1547s1.4374-.6281 2.1547-.6281h21.0693m-157.908-43.5385c-8.3454 0-15.11-6.7641-15.11-15.1095s6.7646-15.1093 15.11-15.1093 15.1094 6.7645 15.1094 15.1093-6.7654 15.1095-15.1094 15.1095zM311.1348 1.8867h-20.7721c-2.0334 0-4.4613 1.6493-5.4226 3.6826L272.2214 32.455v.026c-4.5333 10.713-8.2401 18.2265-10.8401 21.6239V5.5693c0-2.0333-1.6479-3.6826-3.6812-3.6826H240.464c-20.9159 0-20.2333 3.5173-32.1946 30.5943l-9.3747 21.2005V5.5693c0-2.0333-1.648-3.6826-3.6813-3.6826h-18.6106c-2.0335 0-3.6828 1.6493-3.6828 3.6826v23.8961C167.8721 12.4309 152.1107 0 133.4387 0c-18.9339 0-34.8725 12.7804-39.6865 30.1826V5.5693c0-2.0333-1.6486-3.6826-3.6814-3.6826H71.4594c-2.0328 0-3.6812 1.6493-3.6812 3.6826V53.993c-2.5964-3.4506-6.2708-10.9194-10.7527-21.512C47.9236 10.969 43.4922 1.8867 16.937 1.8867H3.6819C1.6486 1.8867 0 3.536 0 5.5693v71.2303c0 2.033 1.6486 3.6814 3.6819 3.6814h18.6108c2.0333 0 3.6813-1.6484 3.6813-3.6814V52.7034l-.0021-24.4751c2.4636 2.124 4.4032 4.3636 11.6266 21.6589C46.1902 70.4591 50.7589 80.481 69.8704 80.481h20.2004c2.0328 0 3.6814-1.6484 3.6814-3.6814V52.1862c4.814 17.4016 20.7526 30.1822 39.6865 30.1822 18.672 0 34.4334-12.4307 39.4813-29.4656v23.8968c0 2.033 1.6493 3.6814 3.6828 3.6814h18.6106.2107c16.5826 0 22.2173-7.547 29.0306-22.985l.0947.0188 10.86-22.9573-.0027 18.1459v24.0962c0 2.033 1.6493 3.6814 3.6813 3.6814h20.2881c16.584 0 22.2173-7.547 29.032-22.985l.0932.0188 24.5734-51.9455c.9613-2.0333.092-3.6826-1.9399-3.6826"/></svg>